<mxfile host="Electron" modified="2024-01-21T15:10:37.864Z" agent="Mozilla/5.0 (Windows NT 10.0; Win64; x64) AppleWebKit/537.36 (KHTML, like Gecko) draw.io/22.1.18 Chrome/120.0.6099.199 Electron/28.1.2 Safari/537.36" etag="zfFxsDP_9Hr0b56TfjzS" version="22.1.18" type="device">
  <diagram name="Page-1" id="u5ctO9imdzY_Kg3m_u0b">
    <mxGraphModel dx="1909" dy="1129" grid="1" gridSize="10" guides="1" tooltips="1" connect="1" arrows="1" fold="1" page="1" pageScale="1" pageWidth="827" pageHeight="1169" math="0" shadow="0">
      <root>
        <mxCell id="0" />
        <mxCell id="1" parent="0" />
        <mxCell id="27LHPOHNThY-x8jZgpuv-1" value="&lt;font style=&quot;font-size: 25px;&quot;&gt;A&lt;/font&gt;" style="text;html=1;align=center;verticalAlign=middle;resizable=0;points=[];autosize=1;strokeColor=none;fillColor=none;" vertex="1" parent="1">
          <mxGeometry x="40" y="80" width="40" height="40" as="geometry" />
        </mxCell>
        <mxCell id="27LHPOHNThY-x8jZgpuv-2" value="&lt;font style=&quot;font-size: 25px;&quot;&gt;B&lt;/font&gt;" style="text;html=1;align=center;verticalAlign=middle;resizable=0;points=[];autosize=1;strokeColor=none;fillColor=none;" vertex="1" parent="1">
          <mxGeometry x="40" y="200" width="40" height="40" as="geometry" />
        </mxCell>
        <mxCell id="27LHPOHNThY-x8jZgpuv-3" value="&lt;font style=&quot;font-size: 25px;&quot;&gt;C&lt;/font&gt;" style="text;html=1;align=center;verticalAlign=middle;resizable=0;points=[];autosize=1;strokeColor=none;fillColor=none;" vertex="1" parent="1">
          <mxGeometry x="40" y="320" width="40" height="40" as="geometry" />
        </mxCell>
        <mxCell id="27LHPOHNThY-x8jZgpuv-4" value="" style="endArrow=none;html=1;rounded=0;exitX=1.04;exitY=0.499;exitDx=0;exitDy=0;exitPerimeter=0;startArrow=oval;startFill=0;" edge="1" parent="1" source="27LHPOHNThY-x8jZgpuv-1">
          <mxGeometry width="50" height="50" relative="1" as="geometry">
            <mxPoint x="140" y="240" as="sourcePoint" />
            <mxPoint x="160" y="100" as="targetPoint" />
          </mxGeometry>
        </mxCell>
        <mxCell id="27LHPOHNThY-x8jZgpuv-5" value="" style="verticalLabelPosition=bottom;shadow=0;dashed=0;align=center;html=1;verticalAlign=top;shape=mxgraph.electrical.logic_gates.inverter_2" vertex="1" parent="1">
          <mxGeometry x="160" y="70" width="100" height="60" as="geometry" />
        </mxCell>
        <mxCell id="27LHPOHNThY-x8jZgpuv-7" value="" style="verticalLabelPosition=bottom;shadow=0;dashed=0;align=center;html=1;verticalAlign=top;shape=mxgraph.electrical.logic_gates.inverter_2" vertex="1" parent="1">
          <mxGeometry x="158" y="190" width="100" height="60" as="geometry" />
        </mxCell>
        <mxCell id="27LHPOHNThY-x8jZgpuv-8" value="" style="endArrow=none;html=1;rounded=0;exitX=1.04;exitY=0.499;exitDx=0;exitDy=0;exitPerimeter=0;startArrow=oval;startFill=0;" edge="1" parent="1">
          <mxGeometry width="50" height="50" relative="1" as="geometry">
            <mxPoint x="80" y="340" as="sourcePoint" />
            <mxPoint x="158" y="340" as="targetPoint" />
          </mxGeometry>
        </mxCell>
        <mxCell id="27LHPOHNThY-x8jZgpuv-9" value="" style="verticalLabelPosition=bottom;shadow=0;dashed=0;align=center;html=1;verticalAlign=top;shape=mxgraph.electrical.logic_gates.inverter_2" vertex="1" parent="1">
          <mxGeometry x="158" y="310" width="100" height="60" as="geometry" />
        </mxCell>
        <mxCell id="27LHPOHNThY-x8jZgpuv-10" value="" style="verticalLabelPosition=bottom;shadow=0;dashed=0;align=center;html=1;verticalAlign=top;shape=mxgraph.electrical.logic_gates.logic_gate;operation=and;negating=1;negSize=0.15;" vertex="1" parent="1">
          <mxGeometry x="360" y="110" width="100" height="60" as="geometry" />
        </mxCell>
        <mxCell id="27LHPOHNThY-x8jZgpuv-11" style="edgeStyle=orthogonalEdgeStyle;rounded=1;orthogonalLoop=1;jettySize=auto;html=1;exitX=1;exitY=0.5;exitDx=0;exitDy=0;exitPerimeter=0;entryX=0;entryY=0.25;entryDx=0;entryDy=0;entryPerimeter=0;endArrow=none;endFill=0;curved=0;" edge="1" parent="1" source="27LHPOHNThY-x8jZgpuv-5" target="27LHPOHNThY-x8jZgpuv-10">
          <mxGeometry relative="1" as="geometry" />
        </mxCell>
        <mxCell id="27LHPOHNThY-x8jZgpuv-12" style="edgeStyle=orthogonalEdgeStyle;rounded=1;orthogonalLoop=1;jettySize=auto;html=1;exitX=1;exitY=0.5;exitDx=0;exitDy=0;exitPerimeter=0;entryX=0;entryY=0.75;entryDx=0;entryDy=0;entryPerimeter=0;endArrow=none;endFill=0;curved=0;" edge="1" parent="1" source="27LHPOHNThY-x8jZgpuv-9" target="27LHPOHNThY-x8jZgpuv-10">
          <mxGeometry relative="1" as="geometry" />
        </mxCell>
        <mxCell id="27LHPOHNThY-x8jZgpuv-15" style="edgeStyle=orthogonalEdgeStyle;rounded=1;orthogonalLoop=1;jettySize=auto;html=1;exitX=0;exitY=0.25;exitDx=0;exitDy=0;exitPerimeter=0;curved=0;endArrow=none;endFill=0;" edge="1" parent="1" source="27LHPOHNThY-x8jZgpuv-13">
          <mxGeometry relative="1" as="geometry">
            <mxPoint x="280" y="100" as="targetPoint" />
          </mxGeometry>
        </mxCell>
        <mxCell id="27LHPOHNThY-x8jZgpuv-13" value="" style="verticalLabelPosition=bottom;shadow=0;dashed=0;align=center;html=1;verticalAlign=top;shape=mxgraph.electrical.logic_gates.logic_gate;operation=and;negating=1;negSize=0.15;" vertex="1" parent="1">
          <mxGeometry x="360" y="270" width="100" height="60" as="geometry" />
        </mxCell>
        <mxCell id="27LHPOHNThY-x8jZgpuv-14" style="edgeStyle=orthogonalEdgeStyle;rounded=1;orthogonalLoop=1;jettySize=auto;html=1;exitX=1;exitY=0.5;exitDx=0;exitDy=0;exitPerimeter=0;entryX=0;entryY=0.75;entryDx=0;entryDy=0;entryPerimeter=0;endArrow=none;endFill=0;curved=0;" edge="1" parent="1" source="27LHPOHNThY-x8jZgpuv-7" target="27LHPOHNThY-x8jZgpuv-13">
          <mxGeometry relative="1" as="geometry">
            <Array as="points">
              <mxPoint x="260" y="220" />
              <mxPoint x="260" y="315" />
            </Array>
          </mxGeometry>
        </mxCell>
        <mxCell id="27LHPOHNThY-x8jZgpuv-19" style="edgeStyle=orthogonalEdgeStyle;rounded=0;orthogonalLoop=1;jettySize=auto;html=1;exitX=1;exitY=0.5;exitDx=0;exitDy=0;exitPerimeter=0;endArrow=circle;endFill=0;" edge="1" parent="1" source="27LHPOHNThY-x8jZgpuv-16">
          <mxGeometry relative="1" as="geometry">
            <mxPoint x="710" y="220" as="targetPoint" />
          </mxGeometry>
        </mxCell>
        <mxCell id="27LHPOHNThY-x8jZgpuv-16" value="" style="verticalLabelPosition=bottom;shadow=0;dashed=0;align=center;html=1;verticalAlign=top;shape=mxgraph.electrical.logic_gates.logic_gate;operation=or;negating=1;negSize=0.15;" vertex="1" parent="1">
          <mxGeometry x="530" y="190" width="100" height="60" as="geometry" />
        </mxCell>
        <mxCell id="27LHPOHNThY-x8jZgpuv-17" style="edgeStyle=orthogonalEdgeStyle;rounded=1;orthogonalLoop=1;jettySize=auto;html=1;exitX=1;exitY=0.5;exitDx=0;exitDy=0;exitPerimeter=0;entryX=0;entryY=0.25;entryDx=0;entryDy=0;entryPerimeter=0;curved=0;endArrow=none;endFill=0;" edge="1" parent="1" source="27LHPOHNThY-x8jZgpuv-10" target="27LHPOHNThY-x8jZgpuv-16">
          <mxGeometry relative="1" as="geometry" />
        </mxCell>
        <mxCell id="27LHPOHNThY-x8jZgpuv-18" style="edgeStyle=orthogonalEdgeStyle;rounded=1;orthogonalLoop=1;jettySize=auto;html=1;exitX=1;exitY=0.5;exitDx=0;exitDy=0;exitPerimeter=0;entryX=0;entryY=0.75;entryDx=0;entryDy=0;entryPerimeter=0;curved=0;endArrow=none;endFill=0;" edge="1" parent="1" source="27LHPOHNThY-x8jZgpuv-13" target="27LHPOHNThY-x8jZgpuv-16">
          <mxGeometry relative="1" as="geometry" />
        </mxCell>
        <mxCell id="27LHPOHNThY-x8jZgpuv-21" value="" style="endArrow=none;html=1;rounded=0;exitX=1.04;exitY=0.499;exitDx=0;exitDy=0;exitPerimeter=0;startArrow=oval;startFill=0;" edge="1" parent="1">
          <mxGeometry width="50" height="50" relative="1" as="geometry">
            <mxPoint x="82" y="219.57999999999998" as="sourcePoint" />
            <mxPoint x="160" y="219.57999999999998" as="targetPoint" />
          </mxGeometry>
        </mxCell>
        <mxCell id="27LHPOHNThY-x8jZgpuv-22" value="&lt;font style=&quot;font-size: 25px;&quot;&gt;Y&lt;/font&gt;" style="text;html=1;align=center;verticalAlign=middle;resizable=0;points=[];autosize=1;strokeColor=none;fillColor=none;" vertex="1" parent="1">
          <mxGeometry x="720" y="200" width="40" height="40" as="geometry" />
        </mxCell>
      </root>
    </mxGraphModel>
  </diagram>
</mxfile>
